<svg xmlns="http://www.w3.org/2000/svg" width="1832.696" height="42.676"><g data-name="Group 12719"><path fill="#ffd500" d="M85.241 42.676V.055l-42.62 42.621Z" data-name="Path 7366"/><path fill="#00a2cb" d="M127.862.055H85.241v42.621Z" data-name="Path 7367"/><path fill="#003168" d="M127.862 42.676V.055L85.241 42.676Z" data-name="Path 7368"/><path fill="#ffd500" d="M170.483.055h-42.621v42.621Z" data-name="Path 7369"/><path fill="#00a2cb" d="M170.483 42.676V.055l-42.621 42.621Z" data-name="Path 7370"/><path fill="#b0c109" d="M213.104.055h-42.621v42.621Z" data-name="Path 7371"/><path fill="#df3976" d="M213.104 42.676V.055l-42.621 42.621Z" data-name="Path 7372"/><path fill="#ffd500" d="M255.724.055h-42.62v42.621Z" data-name="Path 7373"/><path fill="#99cdbc" d="M255.724 42.676V.055l-42.62 42.621Z" data-name="Path 7374"/><path fill="#1a5049" d="M298.345.055h-42.62v42.621Z" data-name="Path 7375"/><path fill="#c33110" d="M298.345 42.676V.055l-42.62 42.621Z" data-name="Path 7376"/><path fill="#b0c109" d="M340.966.055h-42.621v42.621Z" data-name="Path 7377"/><path fill="#003168" d="M340.966 42.676V.055l-42.621 42.621Z" data-name="Path 7378"/><path fill="#ffd500" d="M383.589.055h-42.623v42.621Z" data-name="Path 7379"/><path fill="#1d7e5b" d="M383.589 42.676V.055l-42.623 42.621Z" data-name="Path 7380"/><path fill="#c3310f" d="M426.208.055h-42.619v42.621Z" data-name="Path 7381"/><path fill="#99cdbc" d="M426.208 42.676V.055l-42.619 42.621Z" data-name="Path 7382"/><path fill="#b0c109" d="M468.828.055h-42.62v42.621Z" data-name="Path 7383"/><path fill="#df3976" d="M468.828 42.676V.055l-42.62 42.621Z" data-name="Path 7384"/><path fill="#c33110" d="M1193.381.055h-42.621v42.621Z" data-name="Path 7385"/><path fill="#df3976" d="M1193.381 42.676V.055l-42.62 42.621Z" data-name="Path 7386"/><path fill="#48274e" d="M1236.002.055h-42.621v42.621Z" data-name="Path 7387"/><path fill="#1d7e5b" d="M1236.002 42.676V.055l-42.621 42.621Z" data-name="Path 7388"/><path fill="#ffd500" d="M1278.623.055h-42.621v42.621Z" data-name="Path 7389"/><path fill="#99cdbc" d="M1278.623 42.676V.055l-42.621 42.621Z" data-name="Path 7390"/><path fill="#c3310f" d="M1321.243.055h-42.621v42.621Z" data-name="Path 7393"/><path fill="#003168" d="M1321.243 42.676V.055l-42.62 42.621Z" data-name="Path 7394"/><path fill="#b0c109" d="M1363.864.055h-42.621v42.621Z" data-name="Path 7395"/><path fill="#b0c109" d="M42.62.055H0v42.621Z" data-name="Path 7396"/><path fill="#1d7e5b" d="M1363.864 42.676V.055l-42.62 42.621Z" data-name="Path 7397"/><path fill="#c33110" d="M1406.489.055h-42.622v42.621Z" data-name="Path 7398"/><path fill="#df3976" d="M1406.489 42.676V.055l-42.625 42.621Z" data-name="Path 7399"/><path fill="#48274e" d="M1449.107.055h-42.618v42.621Z" data-name="Path 7400"/><path fill="#1a5049" d="M1449.107 42.676V.055l-42.618 42.621Z" data-name="Path 7401"/><path fill="#1a5049" d="M42.62 42.676V.055L0 42.676Z" data-name="Path 7402"/><path fill="#003168" d="M1491.728.055h-42.621v42.621Z" data-name="Path 7403"/><path fill="#b0c109" d="M1491.728 42.676V.055l-42.62 42.621Z" data-name="Path 7404"/><path fill="#00a2cb" d="M1704.834.055h-42.621v42.621Z" data-name="Path 7405"/><path fill="#003168" d="M1704.834 42.676V.055l-42.621 42.621Z" data-name="Path 7406"/><path fill="#ffd500" d="M1747.455.055h-42.621v42.621Z" data-name="Path 7407"/><path fill="#1a5049" d="M1747.455 42.676V.055l-42.621 42.621Z" data-name="Path 7408"/><path fill="#b0c109" d="M1790.075.055h-42.621v42.621Z" data-name="Path 7409"/><path fill="#df3976" d="M1790.075 42.676V.055l-42.62 42.621Z" data-name="Path 7410"/><path fill="#ffd500" d="M1832.696.055h-42.621v42.621Z" data-name="Path 7411"/><path fill="#1d7e5b" d="M1832.696 42.676V.055l-42.62 42.621Z" data-name="Path 7412"/><path fill="#ffd500" d="M1108.138.055h-42.621v42.621Z" data-name="Path 7415"/><path fill="#003168" d="M1108.138 42.676V.055l-42.62 42.621Z" data-name="Path 7416"/><path fill="#b0c109" d="M1150.759.055h-42.621v42.621Z" data-name="Path 7417"/><path fill="#df3976" d="M1150.759 42.676V.055l-42.621 42.621Z" data-name="Path 7418"/><path fill="#1a5049" d="M511.45.055h-42.621v42.621Z" data-name="Path 7419"/><path fill="#ffd500" d="M511.45 42.676V.055l-42.621 42.621Z" data-name="Path 7420"/><path fill="#00a2cb" d="M554.071.055H511.45v42.621Z" data-name="Path 7421"/><path fill="#003168" d="M554.071 42.676V.055L511.45 42.676Z" data-name="Path 7422"/><path fill="#ffd500" d="M596.689.055h-42.618v42.621Z" data-name="Path 7423"/><path fill="#c3310f" d="M596.689 42.676V.055l-42.618 42.621Z" data-name="Path 7424"/><path fill="#b0c109" d="M639.312.055h-42.623v42.621Z" data-name="Path 7425"/><path fill="#df3976" d="M639.312 42.676V.055l-42.623 42.621Z" data-name="Path 7426"/><path fill="#00a2cb" d="M724.554.055h-42.621v42.621Z" data-name="Path 7427"/><path fill="#003168" d="M724.554 42.676V.055l-42.621 42.621Z" data-name="Path 7428"/><path fill="#df3976" d="M980.281.055H937.66v42.621Z" data-name="Path 7429"/><path fill="#b0c109" d="M980.281 42.676V.055L937.66 42.676Z" data-name="Path 7430"/><path fill="#48274e" d="M1022.902.055h-42.621v42.621Z" data-name="Path 7431"/><path fill="#ffd500" d="M1022.902 42.676V.055l-42.621 42.621Z" data-name="Path 7432"/><path fill="#00a2cb" d="M1065.522.055h-42.621v42.621Z" data-name="Path 7433"/><path fill="#003168" d="M1065.522 42.676V.055l-42.62 42.621Z" data-name="Path 7434"/><path fill="#ffd500" d="M1108.143.055h-42.621v42.621Z" data-name="Path 7435"/><path fill="#1a5049" d="M1108.143 42.676V.055l-42.62 42.621Z" data-name="Path 7436"/><path fill="#99cdbc" d="M681.935.055h-42.621v42.621Z" data-name="Path 7437"/><path fill="#b0c109" d="M681.935 42.676V.055l-42.621 42.621Z" data-name="Path 7438"/><path fill="#00a2cb" d="M1534.349.055h-42.62v42.621Z" data-name="Path 7439"/><path fill="#99cdbc" d="M1534.349 42.676V.055l-42.62 42.621Z" data-name="Path 7440"/><path fill="#ffd500" d="M1576.97.055h-42.621v42.621Z" data-name="Path 7441"/><path fill="#003168" d="M1576.97 42.676V.055l-42.621 42.621Z" data-name="Path 7442"/><path fill="#b0c109" d="M1619.589.055h-42.621v42.621Z" data-name="Path 7443"/><path fill="#df3976" d="M1619.589 42.676V.055l-42.619 42.621Z" data-name="Path 7444"/><path fill="#ffd500" d="M1662.213.055h-42.624v42.621Z" data-name="Path 7445"/><path fill="#b0c109" d="M1662.213 42.676V.055l-42.624 42.621Z" data-name="Path 7446"/><path fill="#b0c109" d="M809.802.055h-42.621v42.621Z" data-name="Path 7447"/><path fill="#df3976" d="M809.802 42.676V.055l-42.621 42.621Z" data-name="Path 7448"/><path fill="#ffd500" d="M852.423.055h-42.621v42.621Z" data-name="Path 7449"/><path fill="#1d7e5b" d="M852.423 42.676V.055l-42.621 42.621Z" data-name="Path 7450"/><path fill="#1a5049" d="M895.044.055h-42.621v42.621Z" data-name="Path 7451"/><path fill="#c33110" d="M895.044 42.676V.055l-42.621 42.621Z" data-name="Path 7452"/><path fill="#99cdbc" d="M937.664.055h-42.62v42.621Z" data-name="Path 7453"/><path fill="#003168" d="M937.664 42.676V.055l-42.62 42.621Z" data-name="Path 7454"/><path fill="#ffd500" d="M767.177 0h-42.621v42.621Z" data-name="Path 7455"/><path fill="#00a2cb" d="M767.177 42.621V0l-42.621 42.621Z" data-name="Path 7456"/><path fill="#df3976" d="M85.241.055h-42.62v42.621Z" data-name="Path 7457"/></g></svg>
