<svg id="Component_28_9" data-name="Component 28 – 9" xmlns="http://www.w3.org/2000/svg" width="651" height="622" viewBox="0 0 651 622">  <g id="Group_11518" data-name="Group 11518" transform="translate(-8760 5684)">    <path id="Path_3700" data-name="Path 3700" d="M54,0l54,78H0Z" transform="translate(9086 -5373) rotate(180)" fill="#f5f9e8"/>    <path id="Polygon_5" data-name="Polygon 5" d="M54.5,0,109,78H0Z" transform="translate(8923 -5451)" fill="#fafcf3"/>    <path id="Polygon_6" data-name="Polygon 6" d="M54.5,0,109,78H0Z" transform="translate(9032 -5451)" fill="#e7f5fc"/>    <path id="Path_3692" data-name="Path 3692" d="M54,0l54,78H0Z" transform="translate(9141 -5451)" fill="#fff"/>    <path id="Polygon_9" data-name="Polygon 9" d="M54.5,0,109,77H0Z" transform="translate(9032 -5296) rotate(180)" fill="#f3fafe"/>    <path id="Polygon_11" data-name="Polygon 11" d="M54,0l54,77H0Z" transform="translate(9249 -5296) rotate(180)" fill="#f3fafe"/>    <path id="Polygon_13" data-name="Polygon 13" d="M54.5,0,109,77H0Z" transform="translate(8869 -5373)" fill="#e7f5fc"/>    <path id="Polygon_14" data-name="Polygon 14" d="M54,0l54,77H0Z" transform="translate(8978 -5373)" fill="#f5f9e8"/>    <path id="Path_3701" data-name="Path 3701" d="M54,0l54,78H0Z" transform="translate(9086 -5218) rotate(180)" fill="#e7f5fc"/>    <path id="Path_3709" data-name="Path 3709" d="M54.5,0,109,78H0Z" transform="translate(9195 -5218) rotate(180)" fill="#fafcf3"/>    <path id="Polygon_21" data-name="Polygon 21" d="M54.5,0,109,78H0Z" transform="translate(8923 -5296)" fill="#fff" opacity="0.6"/>    <path id="Polygon_67" data-name="Polygon 67" d="M54.5,0,109,77H0Z" transform="translate(9141 -5296) rotate(180)" fill="#f3fafe"/>    <path id="Polygon_80" data-name="Polygon 80" d="M54,0l54,78H0Z" transform="translate(8977 -5218) rotate(180)" fill="#f3fafe"/>    <path id="Path_3691" data-name="Path 3691" d="M54,0l54,78H0Z" transform="translate(8977 -5373) rotate(180)" fill="#f0f5dd"/>    <path id="Path_3702" data-name="Path 3702" d="M54,0l54,78H0Z" transform="translate(9303 -5218) rotate(180)" fill="#fff" opacity="0.7"/>    <path id="Polygon_85" data-name="Polygon 85" d="M54,0l54,78H0Z" transform="translate(9303 -5373) rotate(180)" fill="#f3fafe"/>    <path id="Path_3703" data-name="Path 3703" d="M54,0l54,78H0Z" transform="translate(9303 -5373) rotate(180)" fill="#f3fafe"/>    <path id="Polygon_89" data-name="Polygon 89" d="M54.5,0,109,77H0Z" transform="translate(8760 -5373)" fill="#f0f5dd"/>    <path id="Polygon_90" data-name="Polygon 90" d="M54,0l54,78H0Z" transform="translate(8868 -5373) rotate(180)" fill="#eaf1d1"/>    <path id="Polygon_91" data-name="Polygon 91" d="M54.5,0,109,77H0Z" transform="translate(8814 -5450)" fill="#e7f5fc"/>    <path id="Path_3693" data-name="Path 3693" d="M54.5,0,109,78H0Z" transform="translate(8814 -5296)" fill="#f5f9e8"/>    <path id="Polygon_93" data-name="Polygon 93" d="M54.5,0,109,77H0Z" transform="translate(8923 -5296) rotate(180)" fill="#dcf1fa"/>    <path id="Path_3695" data-name="Path 3695" d="M54.5,0,109,78H0Z" transform="translate(8869 -5218)" fill="#f3fafe"/>    <path id="Polygon_96" data-name="Polygon 96" d="M54.5,0,109,77H0Z" transform="translate(8814 -5450)" fill="#e7f5fc"/>    <path id="Polygon_97" data-name="Polygon 97" d="M54.5,0,109,77H0Z" transform="translate(8814 -5450)" fill="#e7f5fc"/>    <path id="Path_3704" data-name="Path 3704" d="M54,0l54,78H0Z" transform="translate(9411 -5373) rotate(180)" fill="#fff" opacity="0.7"/>    <path id="Polygon_100" data-name="Polygon 100" d="M54,0l54,77H0Z" transform="translate(8760 -5527)" fill="#f5f9e8"/>    <path id="Path_3705" data-name="Path 3705" d="M54.5,0,109,78H0Z" transform="translate(9087 -5218)" fill="#fff" opacity="0.7"/>    <path id="Path_3706" data-name="Path 3706" d="M54.5,0,109,78H0Z" transform="translate(9086 -5062) rotate(180)" fill="#fff" opacity="0.5"/>    <path id="Path_3710" data-name="Path 3710" d="M54.5,0,109,78H0Z" transform="translate(8814 -5140)" fill="#fff" opacity="0.9"/>  </g>  <g id="Group_11517" data-name="Group 11517" transform="translate(-8815 5451)">    <path id="Polygon_1" data-name="Polygon 1" d="M54,0l54,78H0Z" transform="translate(9086 -5373) rotate(180)" fill="#e7f5fc"/>    <path id="Path_3697" data-name="Path 3697" d="M54.5,0,109,78H0Z" transform="translate(8923 -5451)" fill="#dcf1fa"/>    <path id="Polygon_6-2" data-name="Polygon 6" d="M54.5,0,109,78H0Z" transform="translate(9032 -5451)" fill="#f3fafe"/>    <path id="Polygon_9-2" data-name="Polygon 9" d="M54.5,0,109,77H0Z" transform="translate(9032 -5296) rotate(180)" fill="#eaf1d1"/>    <path id="Polygon_11-2" data-name="Polygon 11" d="M54,0l54,77H0Z" transform="translate(9249 -5296) rotate(180)" fill="#f3fafe"/>    <path id="Polygon_13-2" data-name="Polygon 13" d="M54.5,0,109,77H0Z" transform="translate(8869 -5373)" fill="#f0f5dd"/>    <path id="Polygon_14-2" data-name="Polygon 14" d="M54,0l54,77H0Z" transform="translate(8978 -5373)" fill="#f5f9e8"/>    <path id="Polygon_15" data-name="Polygon 15" d="M54.5,0,109,77H0Z" transform="translate(9087 -5373)" fill="#f0f5dd"/>    <path id="Polygon_17" data-name="Polygon 17" d="M54,0l54,78H0Z" transform="translate(9086 -5218) rotate(180)" fill="#f3fafe"/>    <path id="Polygon_18" data-name="Polygon 18" d="M54.5,0,109,78H0Z" transform="translate(9195 -5218) rotate(180)" fill="#f5f9e8"/>    <path id="Polygon_21-2" data-name="Polygon 21" d="M54.5,0,109,78H0Z" transform="translate(8923 -5296)" fill="#e7f5fc"/>    <path id="Path_3690" data-name="Path 3690" d="M54.5,0,109,78H0Z" transform="translate(9032 -5296)" fill="#fafcf3"/>    <path id="Polygon_23" data-name="Polygon 23" d="M54,0l54,78H0Z" transform="translate(9141 -5296)" fill="#f3fafe"/>    <path id="Polygon_67-2" data-name="Polygon 67" d="M54.5,0,109,77H0Z" transform="translate(9141 -5296) rotate(180)" fill="#f3fafe"/>    <path id="Polygon_80-2" data-name="Polygon 80" d="M54,0l54,78H0Z" transform="translate(8977 -5218) rotate(180)" fill="#dcf1fa"/>    <path id="Path_3696" data-name="Path 3696" d="M54,0l54,78H0Z" transform="translate(8977 -5373) rotate(180)" fill="#eaf1d1"/>    <path id="Polygon_83" data-name="Polygon 83" d="M54,0l54,78H0Z" transform="translate(9303 -5218) rotate(180)" fill="#fafcf3"/>    <path id="Path_3699" data-name="Path 3699" d="M54.5,0,109,77H0Z" transform="translate(9195 -5373)" fill="#fff" opacity="0.6"/>    <path id="Polygon_86" data-name="Polygon 86" d="M54,0l54,78H0Z" transform="translate(8923 -4985) rotate(180)" fill="#f3fafe"/>    <path id="Polygon_87" data-name="Polygon 87" d="M54.5,0,109,77H0Z" transform="translate(9304 -5373)" fill="#fff" opacity="0.6"/>    <path id="Path_3698" data-name="Path 3698" d="M54,0l54,78H0Z" transform="translate(9249 -5451)" fill="#fafcf3"/>    <path id="Polygon_95" data-name="Polygon 95" d="M54.5,0,109,77H0Z" transform="translate(8815 -5450)" fill="#cfebf8"/>    <path id="Polygon_98" data-name="Polygon 98" d="M54,0l54,78H0Z" transform="translate(9141 -5451)" fill="#fff"/>  </g>
</svg>

