<svg class="denhaag-icon" xmlns="http://www.w3.org/2000/svg" width="24" height="24" viewBox="0 0 24 24" fill="none">
	<path fill-rule="evenodd" clip-rule="evenodd" d="M7.5 6C6.83696 6 6.20107 6.26339 5.73223 6.73223C5.26339 7.20107 5 7.83696 5 8.5V19C5 19.5523 4.55228 20 4 20C3.44772 20 3 19.5523 3 19V8.5C3 7.30653 3.47411 6.16193 4.31802 5.31802C5.16193 4.47411 6.30653 4 7.5 4C8.69347 4 9.83807 4.47411 10.682 5.31802C11.5259 6.16193 12 7.30653 12 8.5V19C12 19.5523 11.5523 20 11 20C10.4477 20 10 19.5523 10 19V8.5C10 7.83696 9.73661 7.20107 9.26777 6.73223C8.79893 6.26339 8.16304 6 7.5 6Z" fill="currentColor"/>
	<path fill-rule="evenodd" clip-rule="evenodd" d="M3 13C3 12.4477 3.44772 12 4 12H11C11.5523 12 12 12.4477 12 13C12 13.5523 11.5523 14 11 14H4C3.44772 14 3 13.5523 3 13Z" fill="currentColor"/>
	<path fill-rule="evenodd" clip-rule="evenodd" d="M18 8C18.5523 8 19 8.44772 19 9V15C19 15.5523 18.5523 16 18 16C17.4477 16 17 15.5523 17 15V9C17 8.44772 17.4477 8 18 8Z" fill="currentColor"/>
	<path fill-rule="evenodd" clip-rule="evenodd" d="M14 12C14 11.4477 14.4477 11 15 11H21C21.5523 11 22 11.4477 22 12C22 12.5523 21.5523 13 21 13H15C14.4477 13 14 12.5523 14 12Z" fill="currentColor"/>
</svg>
