<svg class="denhaag-icon" width="24" height="24" viewBox="0 0 24 24" fill="none" xmlns="http://www.w3.org/2000/svg">
	<path fill-rule="evenodd" clip-rule="evenodd" d="M7.5 6C6.83696 6 6.20107 6.26339 5.73223 6.73223C5.26339 7.20107 5 7.83696 5 8.5V19C5 19.5523 4.55228 20 4 20C3.44772 20 3 19.5523 3 19V8.5C3 7.30653 3.47411 6.16193 4.31802 5.31802C5.16193 4.47411 6.30653 4 7.5 4C8.69347 4 9.83807 4.47411 10.682 5.31802C11.5259 6.16193 12 7.30653 12 8.5V19C12 19.5523 11.5523 20 11 20C10.4477 20 10 19.5523 10 19V8.5C10 7.83696 9.73661 7.20107 9.26777 6.73223C8.79893 6.26339 8.16304 6 7.5 6Z" fill="currentColor"/>
	<path fill-rule="evenodd" clip-rule="evenodd" d="M3 13C3 12.4477 3.44772 12 4 12H11C11.5523 12 12 12.4477 12 13C12 13.5523 11.5523 14 11 14H4C3.44772 14 3 13.5523 3 13Z" fill="currentColor"/>
	<path fill-rule="evenodd" clip-rule="evenodd" d="M15.8787 11.8787C16.4413 11.3161 17.2043 11 18 11C18.7957 11 19.5587 11.3161 20.1213 11.8787C20.6839 12.4413 21 13.2043 21 14C21 14.7957 20.6839 15.5587 20.1213 16.1213C19.5587 16.6839 18.7957 17 18 17C17.2043 17 16.4413 16.6839 15.8787 16.1213C15.3161 15.5587 15 14.7957 15 14C15 13.2043 15.3161 12.4413 15.8787 11.8787ZM18 13C17.7348 13 17.4804 13.1054 17.2929 13.2929C17.1054 13.4804 17 13.7348 17 14C17 14.2652 17.1054 14.5196 17.2929 14.7071C17.4804 14.8946 17.7348 15 18 15C18.2652 15 18.5196 14.8946 18.7071 14.7071C18.8946 14.5196 19 14.2652 19 14C19 13.7348 18.8946 13.4804 18.7071 13.2929C18.5196 13.1054 18.2652 13 18 13Z" fill="currentColor"/>
	<path fill-rule="evenodd" clip-rule="evenodd" d="M18 9.5C18.5523 9.5 19 9.94772 19 10.5V12C19 12.5523 18.5523 13 18 13C17.4477 13 17 12.5523 17 12V10.5C17 9.94772 17.4477 9.5 18 9.5Z" fill="currentColor"/>
	<path fill-rule="evenodd" clip-rule="evenodd" d="M18 15C18.5523 15 19 15.4477 19 16V17.5C19 18.0523 18.5523 18.5 18 18.5C17.4477 18.5 17 18.0523 17 17.5V16C17 15.4477 17.4477 15 18 15Z" fill="currentColor"/>
	<path fill-rule="evenodd" clip-rule="evenodd" d="M21.8985 11.7502C22.1746 12.2284 22.0107 12.84 21.5325 13.1162L20.2335 13.8662C19.7552 14.1423 19.1436 13.9785 18.8674 13.5002C18.5913 13.0219 18.7551 12.4103 19.2334 12.1341L20.5324 11.3841C21.0107 11.108 21.6223 11.2719 21.8985 11.7502Z" fill="currentColor"/>
	<path fill-rule="evenodd" clip-rule="evenodd" d="M17.136 14.5004C17.4119 14.9788 17.2479 15.5904 16.7695 15.8664L15.4695 16.6164C14.9911 16.8923 14.3796 16.7283 14.1036 16.2499C13.8276 15.7715 13.9917 15.16 14.47 14.884L15.77 14.134C16.2484 13.858 16.86 14.0221 17.136 14.5004Z" fill="currentColor"/>
	<path fill-rule="evenodd" clip-rule="evenodd" d="M14.1036 11.7504C14.3796 11.2721 14.9911 11.108 15.4695 11.384L16.7695 12.134C17.2479 12.41 17.4119 13.0215 17.136 13.4999C16.86 13.9783 16.2484 14.1423 15.77 13.8664L14.47 13.1164C13.9917 12.8404 13.8276 12.2288 14.1036 11.7504Z" fill="currentColor"/>
	<path fill-rule="evenodd" clip-rule="evenodd" d="M18.8673 14.5004C19.1432 14.0221 19.7548 13.858 20.2332 14.134L21.5332 14.884C22.0115 15.16 22.1756 15.7715 21.8996 16.2499C21.6236 16.7283 21.0121 16.8923 20.5337 16.6164L19.2337 15.8664C18.7553 15.5904 18.5913 14.9788 18.8673 14.5004Z" fill="currentColor"/>
</svg>
