<svg class="denhaag-icon" xmlns="http://www.w3.org/2000/svg" width="24" height="24" viewBox="0 0 24 24" fill="none">
	<path d="M12 4C7.58172 4 4 7.58172 4 12C4 16.4183 7.58172 20 12 20C16.4183 20 20 16.4183 20 12C20 7.58172 16.4183 4 12 4ZM2 12C2 6.47715 6.47715 2 12 2C17.5228 2 22 6.47715 22 12C22 17.5228 17.5228 22 12 22C6.47715 22 2 17.5228 2 12Z" fill="currentColor"/>
	<path d="M14.2729 13.996C14.3885 13.9365 14.535 13.9878 14.5768 14.1109L14.9496 15.2095C14.9792 15.2967 14.9458 15.3933 14.8658 15.4389C14.3208 15.7494 13.5238 16 12.6625 16C10.5164 16 9.26296 15.0809 8.91376 13.2543C8.89526 13.1576 8.81185 13.0856 8.71333 13.0856H8.2C8.08954 13.0856 8 12.996 8 12.8856V12.1558C8 12.0453 8.08954 11.9558 8.2 11.9558H8.6548C8.7328 11.9558 8.79603 11.8925 8.79603 11.8146C8.79603 11.6356 8.80216 11.4692 8.81016 11.3065C8.81579 11.1919 8.72481 11.0956 8.61007 11.0956H8.2C8.08954 11.0956 8 11.006 8 10.8956V10.1658C8 10.0553 8.08954 9.96576 8.2 9.96576H8.80227C8.8949 9.96576 8.97505 9.90182 8.99923 9.8124C9.49015 7.99659 10.8471 7 12.8141 7C13.5453 7 14.2558 7.16796 14.7402 7.38047C14.8265 7.41834 14.8691 7.51443 14.845 7.60555L14.5333 8.78613C14.5005 8.91027 14.3608 8.97199 14.2421 8.923C13.8441 8.7587 13.333 8.64337 12.8393 8.64337C12.0178 8.64337 11.4745 8.98885 11.2001 9.71765C11.1537 9.84066 11.2499 9.96576 11.3814 9.96576H13.1321C13.2426 9.96576 13.3321 10.0553 13.3321 10.1658V10.8956C13.3321 11.006 13.2426 11.0956 13.1321 11.0956H11.1314C11.021 11.0956 10.9314 11.1851 10.9314 11.2956V11.4807C10.9314 11.58 10.9314 11.6793 10.9341 11.7732C10.937 11.8767 11.0234 11.9558 11.1269 11.9558H13.1321C13.2426 11.9558 13.3321 12.0453 13.3321 12.1558V12.8856C13.3321 12.996 13.2426 13.0856 13.1321 13.0856H11.3402C11.2098 13.0856 11.1136 13.209 11.1591 13.3313C11.4008 13.9808 11.9101 14.3695 12.9025 14.3695C13.2694 14.3695 13.8207 14.229 14.2729 13.996Z" fill="currentColor"/>
</svg>
