<svg class="denhaag-icon" xmlns="http://www.w3.org/2000/svg" width="24" height="24" viewBox="0 0 24 24" fill="none">
	<path fill-rule="evenodd" clip-rule="evenodd" d="M10.586 2.99964C10.961 2.62469 11.4696 2.41406 12 2.41406C12.5303 2.41406 13.0389 2.62469 13.414 2.99964L20.0001 9.58574C20.2797 9.86544 20.4702 10.2219 20.5474 10.6098C20.6245 10.9977 20.5849 11.3998 20.4335 11.7652C20.2822 12.1306 20.0259 12.4429 19.6971 12.6627C19.3683 12.8824 18.9817 12.9998 18.5862 12.9998H16V19.9998C16 20.5303 15.7893 21.039 15.4142 21.4141C15.0391 21.7891 14.5304 21.9998 14 21.9998H9.99997C9.46954 21.9998 8.96083 21.7891 8.58576 21.4141C8.21069 21.039 7.99997 20.5303 7.99997 19.9998V12.9998H5.41397C5.01847 12.9998 4.63166 12.8824 4.30284 12.6627C3.97402 12.4429 3.71774 12.1306 3.5664 11.7652C3.41506 11.3998 3.37546 10.9977 3.45259 10.6098C3.52973 10.2219 3.72014 9.86555 3.99976 9.58585L10.586 2.99964ZM12 4.41406L5.41419 10.9998H8.99997C9.55226 10.9998 9.99997 11.4476 9.99997 11.9998V19.9998H14V11.9998C14 11.4476 14.4477 10.9998 15 10.9998H18.5858L12 4.41406Z" fill="currentColor"/>
</svg>
