<svg class="denhaag-icon" xmlns="http://www.w3.org/2000/svg" width="24" height="24" viewBox="0 0 24 24" fill="none">
	<path fill-rule="evenodd" clip-rule="evenodd" d="M4 7C3.73478 7 3.48043 7.10536 3.29289 7.29289C3.10536 7.48043 3 7.73478 3 8V16C3 16.2652 3.10536 16.5196 3.29289 16.7071C3.48043 16.8946 3.73478 17 4 17H20C20.2652 17 20.5196 16.8946 20.7071 16.7071C20.8946 16.5196 21 16.2652 21 16V8C21 7.73478 20.8946 7.48043 20.7071 7.29289C20.5196 7.10536 20.2652 7 20 7H4ZM1.87868 5.87868C2.44129 5.31607 3.20435 5 4 5H20C20.7957 5 21.5587 5.31607 22.1213 5.87868C22.6839 6.44129 23 7.20435 23 8V16C23 16.7957 22.6839 17.5587 22.1213 18.1213C21.5587 18.6839 20.7957 19 20 19H4C3.20435 19 2.44129 18.6839 1.87868 18.1213C1.31607 17.5587 1 16.7956 1 16V8C1 7.20435 1.31607 6.44129 1.87868 5.87868Z" fill="currentColor"/>
	<path fill-rule="evenodd" clip-rule="evenodd" d="M6 9C6.55228 9 7 9.44772 7 10V10.01C7 10.5623 6.55228 11.01 6 11.01C5.44772 11.01 5 10.5623 5 10.01V10C5 9.44772 5.44772 9 6 9Z" fill="currentColor"/>
	<path fill-rule="evenodd" clip-rule="evenodd" d="M10 9C10.5523 9 11 9.44772 11 10V10.01C11 10.5623 10.5523 11.01 10 11.01C9.44772 11.01 9 10.5623 9 10.01V10C9 9.44772 9.44772 9 10 9Z" fill="currentColor"/>
	<path fill-rule="evenodd" clip-rule="evenodd" d="M14 9C14.5523 9 15 9.44772 15 10V10.01C15 10.5623 14.5523 11.01 14 11.01C13.4477 11.01 13 10.5623 13 10.01V10C13 9.44772 13.4477 9 14 9Z" fill="currentColor"/>
	<path fill-rule="evenodd" clip-rule="evenodd" d="M18 9C18.5523 9 19 9.44772 19 10V10.01C19 10.5623 18.5523 11.01 18 11.01C17.4477 11.01 17 10.5623 17 10.01V10C17 9.44772 17.4477 9 18 9Z" fill="currentColor"/>
	<path fill-rule="evenodd" clip-rule="evenodd" d="M6 13C6.55228 13 7 13.4477 7 14V14.01C7 14.5623 6.55228 15.01 6 15.01C5.44772 15.01 5 14.5623 5 14.01V14C5 13.4477 5.44772 13 6 13Z" fill="currentColor"/>
	<path fill-rule="evenodd" clip-rule="evenodd" d="M18 13C18.5523 13 19 13.4477 19 14V14.01C19 14.5623 18.5523 15.01 18 15.01C17.4477 15.01 17 14.5623 17 14.01V14C17 13.4477 17.4477 13 18 13Z" fill="currentColor"/>
	<path fill-rule="evenodd" clip-rule="evenodd" d="M9 13.9975C9.00138 13.4452 9.45022 12.9986 10.0025 13L14.0025 13.01C14.5548 13.0114 15.0014 13.4602 15 14.0125C14.9986 14.5648 14.5498 15.0114 13.9975 15.01L9.9975 15C9.44522 14.9986 8.99862 14.5498 9 13.9975Z" fill="currentColor"/>
</svg>
