<svg class="denhaag-icon" xmlns="http://www.w3.org/2000/svg" width="24" height="24" viewBox="0 0 24 24" fill="none">
	<path fill-rule="evenodd" clip-rule="evenodd" d="M7.38269 6.07612C7.19996 6.00043 6.99889 5.98063 6.80491 6.01922C6.61093 6.0578 6.43275 6.15304 6.29289 6.29289C6.15304 6.43275 6.0578 6.61093 6.01922 6.80491C5.98063 6.99889 6.00043 7.19996 6.07612 7.38269C6.15181 7.56541 6.27998 7.72159 6.44443 7.83147C6.60888 7.94135 6.80222 8 7 8H8V7C8 6.80222 7.94135 6.60888 7.83147 6.44443C7.72159 6.27998 7.56541 6.15181 7.38269 6.07612ZM10 8V7C10 6.40666 9.82405 5.82664 9.49441 5.33329C9.16477 4.83994 8.69623 4.45543 8.14805 4.22836C7.59987 4.0013 6.99667 3.94189 6.41473 4.05765C5.83279 4.1734 5.29824 4.45912 4.87868 4.87868C4.45912 5.29824 4.1734 5.83279 4.05765 6.41473C3.94189 6.99667 4.0013 7.59987 4.22836 8.14805C4.45543 8.69623 4.83994 9.16477 5.33329 9.49441C5.82664 9.82405 6.40666 10 7 10H8V14H7C6.40666 14 5.82664 14.1759 5.33329 14.5056C4.83994 14.8352 4.45543 15.3038 4.22836 15.8519C4.0013 16.4001 3.94189 17.0033 4.05765 17.5853C4.1734 18.1672 4.45912 18.7018 4.87868 19.1213C5.29824 19.5409 5.83279 19.8266 6.41473 19.9424C6.99667 20.0581 7.59987 19.9987 8.14805 19.7716C8.69623 19.5446 9.16477 19.1601 9.49441 18.6667C9.82405 18.1734 10 17.5933 10 17V16H14V17C14 17.5933 14.1759 18.1734 14.5056 18.6667C14.8352 19.1601 15.3038 19.5446 15.8519 19.7716C16.4001 19.9987 17.0033 20.0581 17.5853 19.9424C18.1672 19.8266 18.7018 19.5409 19.1213 19.1213C19.5409 18.7018 19.8266 18.1672 19.9424 17.5853C20.0581 17.0033 19.9987 16.4001 19.7716 15.8519C19.5446 15.3038 19.1601 14.8352 18.6667 14.5056C18.1734 14.1759 17.5933 14 17 14H16V10H17C17.5933 10 18.1734 9.82405 18.6667 9.49441C19.1601 9.16477 19.5446 8.69623 19.7716 8.14805C19.9987 7.59987 20.0581 6.99667 19.9424 6.41473C19.8266 5.83279 19.5409 5.29824 19.1213 4.87868C18.7018 4.45912 18.1672 4.1734 17.5853 4.05765C17.0033 3.94189 16.4001 4.0013 15.8519 4.22836C15.3038 4.45543 14.8352 4.83994 14.5056 5.33329C14.1759 5.82664 14 6.40666 14 7V8H10ZM10 10V14H14V10H10ZM16 8H17C17.1978 8 17.3911 7.94135 17.5556 7.83147C17.72 7.72159 17.8482 7.56541 17.9239 7.38269C17.9996 7.19996 18.0194 6.99889 17.9808 6.80491C17.9422 6.61093 17.847 6.43275 17.7071 6.29289C17.5673 6.15304 17.3891 6.0578 17.1951 6.01922C17.0011 5.98063 16.8 6.00043 16.6173 6.07612C16.4346 6.15181 16.2784 6.27998 16.1685 6.44443C16.0587 6.60888 16 6.80222 16 7V8ZM16 16V17C16 17.1978 16.0587 17.3911 16.1685 17.5556C16.2784 17.72 16.4346 17.8482 16.6173 17.9239C16.8 17.9996 17.0011 18.0194 17.1951 17.9808C17.3891 17.9422 17.5673 17.847 17.7071 17.7071C17.847 17.5673 17.9422 17.3891 17.9808 17.1951C18.0194 17.0011 17.9996 16.8 17.9239 16.6173C17.8482 16.4346 17.72 16.2784 17.5556 16.1685C17.3911 16.0587 17.1978 16 17 16H16ZM8 16H7C6.80222 16 6.60888 16.0587 6.44443 16.1685C6.27998 16.2784 6.15181 16.4346 6.07612 16.6173C6.00043 16.8 5.98063 17.0011 6.01922 17.1951C6.0578 17.3891 6.15304 17.5673 6.29289 17.7071C6.43275 17.847 6.61093 17.9422 6.80491 17.9808C6.99889 18.0194 7.19996 17.9996 7.38269 17.9239C7.56541 17.8482 7.72159 17.72 7.83147 17.5556C7.94135 17.3911 8 17.1978 8 17V16Z" fill="currentColor"/>
</svg>
