<svg class="denhaag-icon" xmlns="http://www.w3.org/2000/svg" width="18" height="9" viewBox="0 0 18 9" fill="none">
	<path fill-rule="evenodd" clip-rule="evenodd" d="M0 1C0 0.447715 0.447715 0 1 0H6.33333C6.73128 0 7.09135 0.235952 7.25021 0.600818L10.0362 7H17C17.5523 7 18 7.44772 18 8C18 8.55228 17.5523 9 17 9H9.38095C8.98301 9 8.62293 8.76405 8.46408 8.39918L5.67804 2H1C0.447715 2 0 1.55228 0 1Z" fill="currentColor"/>
	<path fill-rule="evenodd" clip-rule="evenodd" d="M11 1C11 0.447715 11.4477 0 12 0H17C17.5523 0 18 0.447715 18 1C18 1.55228 17.5523 2 17 2H12C11.4477 2 11 1.55228 11 1Z" fill="currentColor"/>
</svg>
