<svg class="denhaag-icon" xmlns="http://www.w3.org/2000/svg" width="24" height="24" viewBox="0 0 24 24" fill="none">
	<path d="M19 7.76578C19 6.21119 17.3041 5.25097 15.971 6.0508L8.91466 10.2846C7.61998 11.0614 7.61998 12.9378 8.91466 13.7146L15.971 17.9484C17.3041 18.7482 19 17.788 19 16.2334V7.76578ZM9.94365 11.9996L17 7.76578V16.2334L9.94365 11.9996Z" fill="currentColor"/>
	<path d="M6 5.99959C6.55228 5.99959 7 6.44731 7 6.99959V16.9996C7 17.5519 6.55228 17.9996 6 17.9996C5.44772 17.9996 5 17.5519 5 16.9996V6.99959C5 6.44731 5.44772 5.99959 6 5.99959Z" fill="currentColor"/>
</svg>
