<svg class="denhaag-icon" xmlns="http://www.w3.org/2000/svg" width="24" height="24" viewBox="0 0 24 24" fill="none">
	<path d="M5 7.76578C5 6.21119 6.69594 5.25097 8.02899 6.0508L15.0853 10.2846C16.38 11.0614 16.38 12.9378 15.0853 13.7146L8.02899 17.9484C6.69595 18.7482 5 17.788 5 16.2334V7.76578ZM14.0563 11.9996L7 7.76578V16.2334L14.0563 11.9996Z" fill="currentColor"/>
	<path d="M18 5.99959C18.5523 5.99959 19 6.44731 19 6.99959V16.9996C19 17.5519 18.5523 17.9996 18 17.9996C17.4477 17.9996 17 17.5519 17 16.9996V6.99959C17 6.44731 17.4477 5.99959 18 5.99959Z" fill="currentColor"/>
</svg>
