<svg class="denhaag-icon" xmlns="http://www.w3.org/2000/svg" width="24" height="24" viewBox="0 0 24 24" fill="none">
	<path fill-rule="evenodd" clip-rule="evenodd" d="M6 1C5.44772 1 5 1.44772 5 2V7C3.34315 7 2 8.34315 2 10V16C2 16.5523 2.44772 17 3 17H5V21C5 21.5523 5.44772 22 6 22H18C18.5523 22 19 21.5523 19 21V17H21C21.5523 17 22 16.5523 22 16V10C22 8.34315 20.6569 7 19 7V5.36391C19 5.09869 18.8946 4.84434 18.7071 4.6568L15.3432 1.29289C15.1557 1.10536 14.9013 1 14.6361 1H6ZM17 7L17 5.77812L14.2219 3H7V7H17ZM17 15H19H20V10C20 9.44772 19.5523 9 19 9H5C4.44772 9 4 9.44772 4 10V15H5H7H17ZM7 17H17V20H7V17ZM14 11C14 10.4477 14.4477 10 15 10H17.5C18.0523 10 18.5 10.4477 18.5 11C18.5 11.5523 18.0523 12 17.5 12H15C14.4477 12 14 11.5523 14 11Z" fill="currentColor"/>
</svg>
