<svg class="denhaag-icon" xmlns="http://www.w3.org/2000/svg" width="20" height="20" viewBox="0 0 20 20" fill="none">
	<path d="M20 10C20 15.5228 15.5228 20 10 20C4.47715 20 0 15.5228 0 10C0 4.47715 4.47715 0 10 0C15.5228 0 20 4.47715 20 10Z" fill="white"/>
	<path fill-rule="evenodd" clip-rule="evenodd" d="M10 18C14.4183 18 18 14.4183 18 10C18 5.58172 14.4183 2 10 2C5.58172 2 2 5.58172 2 10C2 14.4183 5.58172 18 10 18ZM10 20C15.5228 20 20 15.5228 20 10C20 4.47715 15.5228 0 10 0C4.47715 0 0 4.47715 0 10C0 15.5228 4.47715 20 10 20Z" fill="currentColor"/>
	<path d="M12 10C12 11.1046 11.1046 12 10 12C8.89543 12 8 11.1046 8 10C8 8.89543 8.89543 8 10 8C11.1046 8 12 8.89543 12 10Z" fill="currentColor"/>
	<path fill-rule="evenodd" clip-rule="evenodd" d="M10 10C9.44772 10 9 9.55228 9 9L9 4C9 3.44772 9.44772 3 10 3C10.5523 3 11 3.44772 11 4L11 9C11 9.55228 10.5523 10 10 10Z" fill="currentColor"/>
	<path fill-rule="evenodd" clip-rule="evenodd" d="M12.8346 6.7533C12.4671 6.34104 12.5034 5.70891 12.9157 5.34141L13.6088 4.72353C14.021 4.35603 14.6531 4.39231 15.0207 4.80457C15.3882 5.21683 15.3519 5.84895 14.9396 6.21646L14.2465 6.83433C13.8342 7.20184 13.2021 7.16556 12.8346 6.7533Z" fill="currentColor"/>
	<path fill-rule="evenodd" clip-rule="evenodd" d="M14 10C14 9.44772 14.4477 9 15 9H15.9285C16.4808 9 16.9285 9.44772 16.9285 10C16.9285 10.5523 16.4808 11 15.9285 11H15C14.4477 11 14 10.5523 14 10Z" fill="currentColor"/>
	<path fill-rule="evenodd" clip-rule="evenodd" d="M3 10C3 9.44772 3.44772 9 4 9H4.92853C5.48082 9 5.92853 9.44772 5.92853 10C5.92853 10.5523 5.48082 11 4.92853 11H4C3.44772 11 3 10.5523 3 10Z" fill="currentColor"/>
	<path fill-rule="evenodd" clip-rule="evenodd" d="M7.16538 6.7533C7.53289 6.34104 7.49661 5.70891 7.08435 5.34141L6.39124 4.72353C5.97898 4.35603 5.34685 4.39231 4.97935 4.80457C4.61184 5.21683 4.64812 5.84895 5.06038 6.21646L5.75349 6.83433C6.16575 7.20184 6.79788 7.16556 7.16538 6.7533Z" fill="currentColor"/>
</svg>
