<svg class="denhaag-icon" xmlns="http://www.w3.org/2000/svg" width="24" height="12" viewBox="0 0 24 12" fill="none">
	<path fill-rule="evenodd" clip-rule="evenodd" d="M21.892 10.8929C21.9531 11.468 22.416 11.9383 22.9943 11.9383C23.5726 11.9383 24.0462 11.4679 23.9957 10.8918C23.4611 4.78856 18.2946 0 12.0001 0C5.70551 0 0.539017 4.78857 0.00442428 10.8918C-0.0460347 11.4679 0.427589 11.9383 1.00587 11.9383C1.58415 11.9383 2.04705 11.468 2.10816 10.8929C2.63474 5.93769 6.86257 2.07623 12.0001 2.07623C17.1376 2.07623 21.3654 5.93769 21.892 10.8929Z" fill="currentColor"/>
	<path d="M14.0481 9.9487C14.0481 11.0476 13.1495 11.9384 12.0412 11.9384C10.9328 11.9384 10.0343 11.0476 10.0343 9.9487C10.0343 8.84981 10.9328 7.95898 12.0412 7.95898C13.1495 7.95898 14.0481 8.84981 14.0481 9.9487Z" fill="currentColor"/>
	<path fill-rule="evenodd" clip-rule="evenodd" d="M11.3048 11.5023C10.8249 11.2276 10.6926 10.5638 11.0095 10.0198L13.8778 5.09417C14.1946 4.55011 14.8405 4.33176 15.3204 4.60648C15.8004 4.8812 15.9326 5.54496 15.6158 6.08903L12.7475 11.0146C12.4306 11.5587 11.7847 11.777 11.3048 11.5023Z" fill="currentColor"/>
</svg>
