<svg class="denhaag-icon" xmlns="http://www.w3.org/2000/svg" width="24" height="24" viewBox="0 0 24 24" fill="none">
	<path d="M12.6644 1.25259C12.2855 0.915803 11.7145 0.915803 11.3356 1.25259L2.33565 9.25259C1.92286 9.61951 1.88568 10.2516 2.2526 10.6644C2.61952 11.0771 3.25159 11.1143 3.66437 10.7474L4.00001 10.4491V18C4.00001 19.1046 4.89544 20 6.00001 20H11V13C11 12.4477 10.5523 12 10 12C9.44773 12 9.00001 12.4477 9.00001 13V18H6.00001V8.67129L12 3.33795L18 8.67129V11C18 11.5523 18.4477 12 19 12C19.5523 12 20 11.5523 20 11V10.4491L20.3356 10.7474C20.7484 11.1143 21.3805 11.0771 21.7474 10.6644C22.1143 10.2516 22.0772 9.61951 21.6644 9.25259L12.6644 1.25259Z" fill="currentColor"/>
	<path d="M19.2729 20.996C19.3885 20.9365 19.535 20.9878 19.5768 21.1109L19.9496 22.2095C19.9792 22.2967 19.9458 22.3933 19.8658 22.4389C19.3208 22.7494 18.5238 23 17.6625 23C15.5164 23 14.263 22.0809 13.9138 20.2543C13.8953 20.1576 13.8119 20.0856 13.7133 20.0856H13.2C13.0895 20.0856 13 19.996 13 19.8856V19.1558C13 19.0453 13.0895 18.9558 13.2 18.9558H13.6548C13.7328 18.9558 13.796 18.8925 13.796 18.8146C13.796 18.6356 13.8022 18.4692 13.8102 18.3065C13.8158 18.1919 13.7248 18.0956 13.6101 18.0956H13.2C13.0895 18.0956 13 18.006 13 17.8956V17.1658C13 17.0553 13.0895 16.9658 13.2 16.9658H13.8023C13.8949 16.9658 13.975 16.9018 13.9992 16.8124C14.4902 14.9966 15.8471 14 17.8141 14C18.5453 14 19.2558 14.168 19.7402 14.3805C19.8265 14.4183 19.8691 14.5144 19.845 14.6056L19.5333 15.7861C19.5005 15.9103 19.3608 15.972 19.2421 15.923C18.8441 15.7587 18.333 15.6434 17.8393 15.6434C17.0178 15.6434 16.4745 15.9889 16.2001 16.7176C16.1537 16.8407 16.2499 16.9658 16.3814 16.9658H18.1321C18.2426 16.9658 18.3321 17.0553 18.3321 17.1658V17.8956C18.3321 18.006 18.2426 18.0956 18.1321 18.0956H16.1314C16.021 18.0956 15.9314 18.1851 15.9314 18.2956V18.4807C15.9314 18.58 15.9314 18.6793 15.9341 18.7732C15.937 18.8767 16.0234 18.9558 16.1269 18.9558H18.1321C18.2426 18.9558 18.3321 19.0453 18.3321 19.1558V19.8856C18.3321 19.996 18.2426 20.0856 18.1321 20.0856H16.3402C16.2098 20.0856 16.1136 20.209 16.1591 20.3313C16.4008 20.9808 16.9101 21.3695 17.9025 21.3695C18.2694 21.3695 18.8207 21.229 19.2729 20.996Z" fill="currentColor"/>
</svg>
